<?xml version="1.0" standalone="no"?>
<!DOCTYPE svg PUBLIC "-//W3C//DTD SVG 20010904//EN"
 "http://www.w3.org/TR/2001/REC-SVG-20010904/DTD/svg10.dtd">
<svg version="1.0" xmlns="http://www.w3.org/2000/svg"
 width="266.000000pt" height="266.000000pt" viewBox="0 0 266.000000 266.000000"
 preserveAspectRatio="xMidYMid meet">
<metadata>
Created by potrace 1.11, written by Peter Selinger 2001-2013
</metadata>
<g transform="translate(0.000000,266.000000) scale(0.100000,-0.100000)"
fill="#000000" stroke="none">
<path d="M1387 2293 c-9 -2 -27 -23 -40 -45 -45 -82 -66 -112 -75 -104 -2 3
-17 -7 -32 -22 -32 -31 -86 -77 -145 -122 -22 -17 -75 -65 -117 -105 -42 -41
-84 -75 -92 -75 -9 0 -16 -4 -16 -8 0 -5 -11 -14 -25 -20 -14 -7 -36 -21 -48
-32 -12 -12 -41 -33 -64 -48 -41 -26 -127 -97 -168 -137 -11 -11 -23 -19 -27
-18 -5 2 -8 -4 -8 -13 0 -8 -4 -12 -10 -9 -5 3 -10 2 -10 -3 0 -5 -12 -15 -27
-23 -31 -16 -62 -48 -63 -65 0 -20 31 -38 73 -42 88 -8 248 -8 253 0 3 4 14 8
25 8 11 0 39 9 62 19 24 11 54 22 68 26 14 3 43 22 65 41 21 20 67 49 100 65
34 16 76 44 95 60 84 76 194 101 275 63 21 -10 76 -55 121 -99 46 -44 95 -89
110 -101 65 -49 163 -114 171 -114 5 0 15 -6 21 -14 7 -8 25 -17 40 -21 16 -3
39 -17 51 -31 13 -13 32 -24 42 -24 10 0 18 -4 18 -10 0 -15 80 -32 118 -25
19 3 56 18 83 33 65 36 60 54 -40 135 -11 9 -31 17 -43 17 -11 0 -42 17 -67
38 -68 55 -81 70 -75 85 3 8 -13 31 -37 53 -24 22 -55 51 -69 66 -76 77 -384
505 -416 578 -11 24 -36 50 -48 49 -6 -1 -19 -3 -29 -6z"/>
<path d="M363 1334 c-9 -4 -7 -14 7 -36 10 -18 17 -35 14 -40 -3 -4 4 -17 15
-29 11 -12 18 -26 15 -31 -3 -4 0 -8 7 -8 7 0 9 -3 6 -7 -4 -3 1 -12 11 -20
11 -10 12 -12 2 -8 -8 4 -6 -2 5 -12 11 -10 31 -36 44 -58 13 -22 29 -44 37
-48 8 -4 14 -14 14 -21 0 -7 9 -21 20 -31 11 -10 20 -24 20 -32 0 -7 4 -13 8
-13 4 0 32 -23 61 -51 29 -28 83 -70 119 -94 148 -98 171 -115 264 -199 53
-47 101 -86 106 -86 5 0 12 -7 16 -15 3 -8 12 -15 21 -15 8 0 15 -4 15 -9 0
-5 9 -12 19 -16 11 -3 35 -16 54 -29 69 -47 65 -49 172 54 17 16 56 41 88 55
32 15 63 37 68 49 6 12 23 29 39 38 15 9 37 29 47 44 10 16 42 55 72 87 30 32
62 70 71 85 9 15 29 38 45 52 15 14 49 45 75 70 48 46 61 56 139 111 l43 31
-22 24 c-25 25 -21 30 30 36 17 2 26 10 28 24 4 25 -24 32 -152 35 -71 2 -80
0 -86 -17 -4 -10 -6 -22 -4 -25 2 -4 -23 -7 -55 -7 -32 0 -67 -5 -79 -11 -11
-6 -30 -11 -41 -11 -12 0 -21 -4 -21 -9 0 -5 -16 -15 -35 -22 -19 -7 -35 -16
-35 -19 0 -11 -25 -12 -265 -13 -198 -1 -234 2 -260 16 -16 9 -36 17 -44 17
-21 0 -169 77 -203 105 -16 14 -40 28 -54 31 -13 3 -24 10 -24 15 0 5 -5 9
-10 9 -6 0 -30 9 -53 21 -32 15 -68 21 -147 24 -58 3 -130 7 -160 9 -30 3 -60
3 -67 0z"/>
<path d="M2646 1188 c-3 -13 -1 -27 4 -32 7 -7 10 1 10 22 0 37 -5 41 -14 10z"/>
</g>
</svg>
